<svg width="16" height="18" viewBox="0 0 16 18" fill="none" xmlns="http://www.w3.org/2000/svg">
<g id="instagram" clip-path="url(#clip0_3327_3987)">
<path id="Vector" d="M8.00327 5.17243C5.8865 5.17243 4.17911 6.87982 4.17911 8.99658C4.17911 11.1133 5.8865 12.8207 8.00327 12.8207C10.12 12.8207 11.8274 11.1133 11.8274 8.99658C11.8274 6.87982 10.12 5.17243 8.00327 5.17243ZM8.00327 11.4828C6.63536 11.4828 5.51707 10.3678 5.51707 8.99658C5.51707 7.62534 6.63203 6.51038 8.00327 6.51038C9.3745 6.51038 10.4895 7.62534 10.4895 8.99658C10.4895 10.3678 9.37117 11.4828 8.00327 11.4828V11.4828ZM12.8758 5.016C12.8758 5.51191 12.4764 5.90797 11.9838 5.90797C11.4879 5.90797 11.0919 5.50858 11.0919 5.016C11.0919 4.52342 11.4913 4.12403 11.9838 4.12403C12.4764 4.12403 12.8758 4.52342 12.8758 5.016ZM15.4086 5.92128C15.352 4.72644 15.0791 3.66806 14.2038 2.79606C13.3318 1.92406 12.2734 1.65115 11.0786 1.59124C9.84711 1.52135 6.15609 1.52135 4.92464 1.59124C3.73313 1.64782 2.67475 1.92073 1.79942 2.79273C0.924091 3.66473 0.654504 4.72312 0.594595 5.91796C0.524702 7.14941 0.524702 10.8404 0.594595 12.0719C0.651175 13.2667 0.924091 14.3251 1.79942 15.1971C2.67475 16.0691 3.7298 16.342 4.92464 16.4019C6.15609 16.4718 9.84711 16.4718 11.0786 16.4019C12.2734 16.3453 13.3318 16.0724 14.2038 15.1971C15.0758 14.3251 15.3487 13.2667 15.4086 12.0719C15.4785 10.8404 15.4785 7.15273 15.4086 5.92128V5.92128ZM13.8177 13.3932C13.5581 14.0455 13.0555 14.5481 12.3999 14.811C11.418 15.2004 9.08827 15.1106 8.00327 15.1106C6.91826 15.1106 4.58516 15.1971 3.60666 14.811C2.95432 14.5514 2.45176 14.0489 2.18882 13.3932C1.79942 12.4114 1.88928 10.0816 1.88928 8.99658C1.88928 7.91157 1.80275 5.57847 2.18882 4.59997C2.44843 3.94763 2.95099 3.44507 3.60666 3.18214C4.58849 2.79273 6.91826 2.8826 8.00327 2.8826C9.08827 2.8826 11.4214 2.79606 12.3999 3.18214C13.0522 3.44174 13.5548 3.94431 13.8177 4.59997C14.2071 5.5818 14.1172 7.91157 14.1172 8.99658C14.1172 10.0816 14.2071 12.4147 13.8177 13.3932Z" fill="#6B6B6B"/>
</g>
<defs>
<clipPath id="clip0_3327_3987">
<rect width="14.9105" height="17.0406" fill="white" transform="translate(0.544739 0.479675)"/>
</clipPath>
</defs>
</svg>
