<svg width="19" height="16" viewBox="0 0 19 16" fill="none" xmlns="http://www.w3.org/2000/svg">
<g id="Group 1125">
<path id="Path 1139" d="M15.6184 4.63251L13.1109 7.14001C13.2651 7.75761 13.2569 8.40462 13.087 9.01809C12.917 9.63156 12.5912 10.1906 12.1412 10.6409C11.6912 11.0911 11.1323 11.4172 10.5189 11.5875C9.90552 11.7578 9.25859 11.7664 8.6409 11.6125L6.93756 13.3158C7.76975 13.5622 8.63296 13.6876 9.50083 13.6883C11.3444 13.6425 13.1394 13.087 14.6865 12.0834C16.2336 11.0798 17.4725 9.66727 18.2659 8.00251C17.6092 6.71878 16.7102 5.57437 15.6184 4.63251V4.63251Z" fill="#A6A6A6"/>
<path id="Path 1140" d="M16.1325 0.52002L13.435 3.21669C12.2079 2.62453 10.8633 2.31581 9.50081 2.31335C7.65703 2.35918 5.86199 2.91479 4.31471 3.91856C2.76742 4.92233 1.52843 6.33504 0.735046 8.00002C1.59643 9.69449 2.88675 11.1337 4.47752 12.1742L1.1717 15.48H2.86919L17.8292 0.52002H16.1325ZM9.50081 6.12502C9.18173 6.12301 8.8675 6.20297 8.58819 6.35725C8.30887 6.51153 8.07386 6.73495 7.90566 7.00611C7.73746 7.27728 7.64171 7.58709 7.62759 7.90587C7.61348 8.22465 7.68147 8.54172 7.82504 8.82669L6.49168 10.16C6.03028 9.5346 5.78092 8.77805 5.78001 8.00085C5.78001 7.01425 6.17195 6.06805 6.86959 5.37042C7.56722 4.67278 8.51339 4.28085 9.5 4.28085C10.2769 4.28188 11.0331 4.53124 11.6583 4.99252L10.325 6.32585C10.0695 6.19598 9.78738 6.12723 9.50081 6.12502Z" fill="#A6A6A6"/>
</g>
</svg>
