<svg width="46" height="16" viewBox="0 0 46 16" fill="none" xmlns="http://www.w3.org/2000/svg">
<g id="Logo / Default" clip-path="url(#clip0_3327_863)">
<g id="img_logo">
<g id="logo">
<g id="&#234;&#183;&#184;&#235;&#163;&#185; 5598">
<mask id="mask0_3327_863" style="mask-type:luminance" maskUnits="userSpaceOnUse" x="0" y="2" width="46" height="12">
<path id="clip-path" d="M0 2.24219H45.8296V13.759H0V2.24219Z" fill="white"/>
</mask>
<g mask="url(#mask0_3327_863)">
<g id="Group">
<path id="&#237;&#140;&#168;&#236;&#138;&#164; 4595" d="M30.027 8.73287L32.2591 13.3491H35.7274V2.51965H32.407V7.02769C32.4071 7.09583 32.3848 7.16201 32.3435 7.21545C32.3022 7.26888 32.2445 7.30642 32.1798 7.32196C32.1151 7.33749 32.0471 7.33009 31.987 7.30098C31.9269 7.27186 31.8781 7.22274 31.8487 7.16162L29.6052 2.51965H26.1369V13.3486H29.4672V8.86626C29.4672 8.79816 29.4897 8.73207 29.531 8.67872C29.5723 8.62538 29.63 8.58793 29.6947 8.57247C29.7594 8.55701 29.8273 8.56444 29.8874 8.59357C29.9474 8.62269 29.9961 8.67179 30.0255 8.73287" fill="white"/>
<path id="&#236;&#130;&#172;&#234;&#176;&#129;&#237;&#152;&#149; 4338" d="M21.0006 2.51965H24.6424V13.3486H21.0006V2.51965Z" fill="white"/>
<path id="&#237;&#140;&#168;&#236;&#138;&#164; 4596" d="M36.8036 6.90932V8.90539C36.8036 10.8468 37.5182 12.2504 38.927 13.0765C41.1747 14.3949 44.4114 13.5811 45.8301 12.5059V7.46646H42.5411V10.6357L42.4784 10.6609C42.2171 10.7648 41.9365 10.8074 41.6571 10.7856C41.3777 10.7638 41.1066 10.6782 40.8637 10.535C40.635 10.346 40.4564 10.1012 40.344 9.82302C40.2317 9.54484 40.1893 9.24222 40.2207 8.94289V6.7095C40.188 6.41943 40.2591 6.12705 40.4209 5.88671C40.5827 5.64637 40.8242 5.47444 41.1005 5.40289C41.401 5.32873 41.7177 5.37426 41.9867 5.5303C42.2557 5.68633 42.4568 5.94122 42.5495 6.24343L45.7355 4.49218C45.3297 3.76972 44.7363 3.17686 44.0212 2.7796C43.3062 2.38235 42.4975 2.19631 41.6854 2.24218C41.4706 2.24218 41.2615 2.25289 41.0623 2.2711C39.9854 2.33706 38.9577 2.75606 38.1309 3.46628C37.6831 3.91003 37.3332 4.44689 37.1047 5.04077C36.8762 5.63465 36.7744 6.27178 36.8063 6.90932" fill="white"/>
<path id="&#237;&#140;&#168;&#236;&#138;&#164; 4597" d="M9.03639 2.51965H0V5.69001H2.71818V13.3507H6.31298V5.69001H9.03377L9.03639 2.51965Z" fill="white"/>
<path id="&#237;&#140;&#168;&#236;&#138;&#164; 4598" d="M13.2072 13.4718L15.4842 6.22086C15.5054 6.15201 15.5499 6.09322 15.6098 6.05516C15.6696 6.0171 15.7408 6.00231 15.8104 6.01346C15.88 6.02461 15.9434 6.06097 15.989 6.11593C16.0347 6.1709 16.0596 6.24082 16.0592 6.313L16.0592 13.4723L19.5124 13.4723L19.5124 2.64283L12.983 2.64283L9.40909 13.4718L13.2072 13.4718Z" fill="white"/>
</g>
</g>
</g>
</g>
</g>
</g>
<defs>
<clipPath id="clip0_3327_863">
<rect width="46" height="15" fill="white" transform="translate(0 0.5)"/>
</clipPath>
</defs>
</svg>
