<svg width="16" height="16" viewBox="0 0 16 16" fill="none" xmlns="http://www.w3.org/2000/svg">
<g id="twitter" clip-path="url(#clip0_3327_3990)">
<path id="Vector" d="M13.8664 4.99173C13.8758 5.12292 13.8758 5.25414 13.8758 5.38534C13.8758 9.38688 10.8302 13.9976 5.26357 13.9976C3.54861 13.9976 1.95549 13.5009 0.615387 12.6388C0.85905 12.6669 1.09331 12.6762 1.34635 12.6762C2.7614 12.6762 4.06403 12.1983 5.10425 11.383C3.77352 11.3549 2.65833 10.4833 2.2741 9.28381C2.46154 9.3119 2.64895 9.33065 2.84577 9.33065C3.11753 9.33065 3.38932 9.29315 3.64233 9.22759C2.25538 8.94642 1.21513 7.72816 1.21513 6.25687V6.21939C1.61808 6.44431 2.08669 6.58488 2.58333 6.6036C1.76802 6.06005 1.23388 5.1323 1.23388 4.0827C1.23388 3.52043 1.38379 3.00501 1.6462 2.55518C3.13625 4.39196 5.37601 5.59147 7.8875 5.72269C7.84066 5.49778 7.81253 5.26352 7.81253 5.02923C7.81253 3.36112 9.16201 2.00229 10.8395 2.00229C11.711 2.00229 12.4982 2.36777 13.0511 2.95816C13.7352 2.82697 14.3912 2.57393 14.9722 2.2272C14.7473 2.93007 14.2694 3.52046 13.6415 3.89529C14.2506 3.82972 14.841 3.661 15.3846 3.42674C14.9723 4.02648 14.4568 4.56063 13.8664 4.99173V4.99173Z" fill="#6B6B6B"/>
</g>
<defs>
<clipPath id="clip0_3327_3990">
<rect width="14.7692" height="14.7692" fill="white" transform="translate(0.615387 0.615387)"/>
</clipPath>
</defs>
</svg>
