<svg width="16" height="14" viewBox="0 0 16 14" fill="none" xmlns="http://www.w3.org/2000/svg">
<g id="youtube" clip-path="url(#clip0_3327_3984)">
<path id="Vector" d="M14.9188 3.4327C14.7527 2.79313 14.2633 2.28942 13.642 2.11848C12.5158 1.80786 8 1.80786 8 1.80786C8 1.80786 3.48418 1.80786 2.35798 2.11848C1.73667 2.28945 1.24732 2.79313 1.08124 3.4327C0.77948 4.59197 0.77948 7.01066 0.77948 7.01066C0.77948 7.01066 0.77948 9.42936 1.08124 10.5886C1.24732 11.2282 1.73667 11.7109 2.35798 11.8819C3.48418 12.1925 8 12.1925 8 12.1925C8 12.1925 12.5158 12.1925 13.642 11.8819C14.2633 11.7109 14.7527 11.2282 14.9188 10.5886C15.2205 9.42936 15.2205 7.01066 15.2205 7.01066C15.2205 7.01066 15.2205 4.59197 14.9188 3.4327V3.4327ZM6.52307 9.20666V4.81467L10.2974 7.01072L6.52307 9.20666V9.20666Z" fill="#6B6B6B"/>
</g>
<defs>
<clipPath id="clip0_3327_3984">
<rect width="15.2308" height="13.8462" fill="white" transform="translate(0.384613 0.0769958)"/>
</clipPath>
</defs>
</svg>
