<svg width="50" height="50" viewBox="0 0 50 50" fill="none" xmlns="http://www.w3.org/2000/svg">
<g clip-path="url(#clip0_3311_1595)">
<path d="M38.3289 39.887H11.1079V19.471H38.3289V39.886V39.887ZM24.7599 26.443C24.2295 26.443 23.7208 26.6537 23.3457 27.0288C22.9706 27.4039 22.7599 27.9126 22.7599 28.443V31.571C22.7599 32.1014 22.9706 32.6101 23.3457 32.9852C23.7208 33.3603 24.2295 33.571 24.7599 33.571H24.8309C25.3613 33.571 25.8701 33.3603 26.2451 32.9852C26.6202 32.6101 26.8309 32.1014 26.8309 31.571V28.444C26.8309 27.9136 26.6202 27.4049 26.2451 27.0298C25.8701 26.6547 25.3613 26.444 24.8309 26.444L24.7599 26.443Z" fill="white"/>
<path d="M24.7951 9.14099C26.9545 9.14099 29.0254 9.99881 30.5523 11.5257C32.0793 13.0526 32.9371 15.1236 32.9371 17.283V22.372C32.9371 26.872 16.8581 23.137 16.6531 22.372V17.283C16.6531 15.1236 17.5109 13.0526 19.0378 11.5257C20.5647 9.99881 22.6357 9.14099 24.7951 9.14099V9.14099Z" stroke="white" stroke-width="4"/>
</g>
<defs>
<clipPath id="clip0_3311_1595">
<rect width="50" height="50" fill="white"/>
</clipPath>
</defs>
</svg>
